# Rhino

mtllib treeModel_12m.mtl
usemtl Material_2
v 0.38934558803482661 1.2472876393861796 12.105190683094692
v 1.8602854274489005 -0.057450071674036901 10.581656982804425
v 0.97806117436430673 1.6148070604473126 10.649475381374568
v -1.0278084327985801 1.6631029878305277 10.582314467398678
v -0.87303373502938031 -0.039827617552200739 11.911036673893284
v 0.86967136344695539 -1.0052670761915412 11.895501840201213
v -0.021935268395008155 3.1307957862356002 9.8986377232496121
v 1.6718016081100069 2.615103157124588 9.5577151719731486
v 0.14791192005876197 2.9908278056727937 8.3318963450917778
v 0.18533052431376559 4.5094342289150413 6.6988140131522798
v -1.8490474074631009 3.3498499885959858 6.8939011738824547
v -2.4807917575182108 1.609331220464624 9.2780318406414999
v -2.294499167296475 2.1364071389488219 7.2453889718352711
v -3.1990944041004439 0.32832732862773661 6.376163467840934
v -2.8455302244712537 0.6082499287685168 8.1430271255699083
v 2.4391610830157116 1.2756328952176359 10.076767305617928
v -2.8644679493894296 -0.26102127422242344 9.3099691277290955
v -1.083646106369573 -1.6962745109948669 10.695238258843272
v 0.58627992421846575 -2.8493740077261203 9.8025615683442844
v 0.85513363396184283 -1.3535915873976694 10.693490021388287
v -2.3440483805313366 -0.86258860040295315 8.5105745534024244
v 1.2295496162341004 -2.4766205918244237 7.8270212907092764
v -1.2368907216916474 -3.0267406124257281 7.5968919341773296
v 1.2041193961777801 -3.9824064743361602 6.8133928893745352
v -0.2742062131682742 -3.9337925154881312 6.6187406216667588
v -2.0998569468387829 -3.654911092521663 6.8409807046527078
v -1.1128220837301155 -3.2283260963971037 4.8518650490604509
v 1.8267846668737344 -1.4614949711922411 1.9009880778904951
v 4.662923252984557 0.80857248232353363 3.0639534897420568
v 3.0635993208304675 -1.931116949437383 2.3448237573161452
v -0.35042378303950089 -3.4076900484477721 2.4743815298860881
v 1.4572946296722171 -3.8893710236563823 3.6207941984122147
v -0.50313815247706806 -4.2099373956557136 3.5982358153290184
v 3.3477832772835012 0.04024546986815742 7.9669669407590451
v 3.4821514616205276 1.3867804326501321 5.8870978309143123
v 2.352324905555629 1.8103049822610604 7.5561295140883367
v 1.6445756388579762 -1.78923567933831 9.9232668578535943
v 3.3850465252774304 -1.7447069579723926 3.7331097895278091
v 2.7639174860237938 -1.4416908153132535 6.3030581132499055
v -2.513359332945555 3.9410823405015432 5.4878216263473742
v -2.2764197125868013 4.1520076093826548 3.3546369607724906
v -3.5602229867510808 1.7557191456271641 4.1691707407054777
v -0.48271296737396918 4.6513435013846154 3.4828074625119498
v 1.5058731116175335 3.1769835365283949 2.9767728739314543
v -0.45501803793349244 3.8790598814626582 2.3992281703583043
v -0.91188222388076379 4.0618506527828169 4.5488751345080383
v -1.8128202333234782 1.4854162922209628 1.8943735608221037
v 3.6142393268619322 1.5405138210157299 2.188255770225628
v -1.5329614062234713 -0.16114617294826364 1.9538985277915604
v -3.7598049352964646 -1.7729633994774323 7.3999812556309381
v -4.0752418725794035 -1.9693051197953784 5.7244510900460774
v -4.4245316229879199 1.9832098850444448 5.8318366298752888
v 2.520830164793789 3.067981712712184 6.1856386219560475
v 3.1490045856230515 2.6999179285675599 4.2784653688335483
v 0.80790390897762809 3.7072712835899373 5.0690396844267633
v -1.9857949953277581 3.4262460439063682 6.3559856230889746
v -3.6963355218906746 0.58571764190187625 5.0399224321681571
v -4.1591139090101237 -0.039067974175717071 2.6622967468438796
v -4.3386336598171873 -1.3035702321346392 4.5498001622568127
v -3.4651754968997928 2.0313248157254158 2.8358561613796058
v -3.4823936797791957 -2.4951303883760652 2.5106368768338014
v -3.6541838147295005 -2.6297018102537559 3.871753197644384
v -4.6087376115037353 0.71755218388648445 3.350333794509067
v 0.18466772654583832 0.053705279247686699 0.38241519770335725
v 0.16250141897080486 0.092147320743685091 0.99610696500665186
v 0.069463277295376838 -0.023705075620300289 0.99632766102985348
v 0.079193384844989556 -0.084029010279240618 0.3828537125776787
v -0.088493461877642815 -0.12781734320887958 0.38217791562933223
v -0.074859985471587981 -0.057790560293401745 0.99385288685065742
v 0.003313165730401124 0.32732733608291731 0.37911941400840138
v 0.013151069071859534 0.32969327564825746 0.98817842652404575
v 0.1287923694513283 0.23671557933375156 0.99250481325864337
v 0.14116018838986044 0.2217184306799285 0.38079680533198307
v -0.27016018739191477 0.14523821659514108 0.37887454973969992
v -0.22447800146730762 0.17943509104091762 0.98592136964872679
v -0.13146732995525201 0.29553077463467303 0.98565782068606511
v -0.17023998433758719 0.29448659264919258 0.37842032889074267
v -0.1904695767757196 0.034840726267213996 0.98947288316811333
v -0.2262190147920948 -0.022656912678216526 0.38047341118999517
v 0.16141608332820695 0.1027548301933383 1.8633919010546109
v 0.061004013575592347 -0.0092149535816774489 1.8790162317229409
v -0.087443767156010849 -0.035623111702004322 1.8863237072249253
v 0.014334084942357673 0.32783791331429174 1.8480712643617376
v 0.11908300334538663 0.24162281962423796 1.8536207538727862
v -0.20495098914116117 0.2059112199015348 1.8608532198061269
v -0.12605530442659807 0.32408665810442222 1.846335347973129
v -0.18446748011457326 0.072774800604988532 1.8724336681892122
v 0.32434688153986557 -0.16260487239168447 0
v 0.4100839679458364 -0.02034326881437416 0
v -0.006276341250891577 -0.32346473317589819 0
v 0.14203948673572156 -0.189433941512888 0
v 0.10324923779771779 0.43430919407167967 0
v 0.0076682928514685495 0.52269765543794722 0
v 0.38625797078723278 0.093684036728706649 0
v 0.18049453562008569 0.23201541855855173 0
v -0.3587953146331056 0.31301465529286154 0
v -0.37589258307518103 0.16863262303472973 0
v -0.11215305134770687 0.44099594367946793 0
v -0.23322727192682643 0.38927521227965367 0
v -0.28842291559292671 -0.1626511120636151 0
v -0.14828301230210431 -0.29007409352959712 0
v -0.49172359738789578 0.041182950636516578 0
v -0.44290662764620042 -0.062707638794153225 0
vn 0.26167434453964233 0.50700217485427856 0.82126444578170776
vn 0.78460425138473511 -0.097967758774757385 0.61220788955688477
vn 0.35912045836448669 0.57311427593231201 0.73659521341323853
vn -0.3761647641658783 0.64567768573760986 0.66453021764755249
vn -0.56477165222167969 0.019742047414183617 0.82501101493835449
vn 0.36102151870727539 -0.54922646284103394 0.75366687774658203
vn -0.15607714653015137 0.88232713937759399 0.44400313496589661
vn 0.52229231595993042 0.79948794841766357 0.29669815301895142
vn 0.11078096181154251 0.91169255971908569 0.39565667510032654
vn 0.004514103289693594 0.98135483264923096 0.19215193390846252
vn -0.57823890447616577 0.63051164150238037 0.51777875423431396
vn -0.8092225193977356 0.38269007205963135 0.4457659125328064
vn -0.73732477426528931 0.5475839376449585 0.39560592174530029
vn -0.92468243837356567 0.06379351019859314 0.37535688281059265
vn -0.96915185451507568 0.18637834489345551 0.16126918792724609
vn 0.82248967885971069 0.23733091354370117 0.51689916849136353
vn -0.94118350744247437 -0.23805707693099976 0.23979668319225311
vn -0.50205439329147339 -0.63116621971130371 0.59124499559402466
vn 0.25570040941238403 -0.84771299362182617 0.46475797891616821
vn 0.44765841960906982 -0.64954137802124023 0.61457133293151855
vn -0.77018332481384277 -0.50157171487808228 0.39400947093963623
vn 0.54401642084121704 -0.76951819658279419 0.33449646830558777
vn -0.23718897998332977 -0.76587337255477905 0.59764480590820312
vn 0.28566312789916992 -0.89326238632202148 0.34710070490837097
vn -0.086782172322273254 -0.98052805662155151 0.17616359889507294
vn -0.40491735935211182 -0.88363480567932129 0.23501372337341309
vn -0.23111703991889954 -0.97216063737869263 0.038583170622587204
vn 0.20039166510105133 -0.15293627977371216 -0.9677053689956665
vn 0.94052869081497192 0.050837542861700058 -0.33588886260986328
vn 0.56124866008758545 -0.51785308122634888 -0.64562231302261353
vn -0.045461032539606094 -0.63511312007904053 -0.7710801362991333
vn 0.45208203792572021 -0.88856393098831177 -0.077948503196239471
vn -0.16553623974323273 -0.98616844415664673 -0.0083367256447672844
vn 0.97027963399887085 -0.0055244006216526031 0.24192339181900024
vn 0.94230556488037109 0.17051243782043457 0.28807240724563599
vn 0.75385671854019165 0.60901278257369995 0.24658358097076416
vn 0.74292129278182983 -0.51705169677734375 0.42511820793151855
vn 0.86311417818069458 -0.48320251703262329 0.14679676294326782
vn 0.84862178564071655 -0.49240994453430176 0.19332218170166016
vn -0.46761947870254517 0.86822563409805298 0.1658802330493927
vn -0.52845281362533569 0.78616929054260254 -0.32043009996414185
vn -0.89299309253692627 0.44576746225357056 -0.062086537480354309
vn 0.14217008650302887 0.98832851648330688 -0.054721470922231674
vn 0.41141447424888611 0.63287574052810669 -0.65590125322341919
vn 0.043333645910024643 0.56325048208236694 -0.82514911890029907
vn -0.044838253408670425 0.97911381721496582 0.19830711185932159
vn -0.14403234422206879 0.16016049683094025 -0.97652614116668701
vn 0.40323013067245483 0.41772755980491638 -0.81419235467910767
vn -0.12253788858652115 0.015405051410198212 -0.99234426021575928
vn -0.68366605043411255 -0.33052286505699158 0.65065765380859375
vn -0.94911026954650879 -0.27226090431213379 0.15831510722637177
vn -0.915091872215271 0.20403845608234406 0.3478148877620697
vn 0.65370392799377441 0.7012292742729187 0.28451481461524963
vn 0.64096224308013916 0.76575857400894165 -0.052736956626176834
vn 0.37307834625244141 0.92674911022186279 -0.044143367558717728
vn -0.47451591491699219 0.77266150712966919 0.42169758677482605
vn -0.97385770082473755 -0.041071295738220215 0.22341503202915192
vn -0.86227035522460938 -0.097875393927097321 -0.49690064787864685
vn -0.99764090776443481 -0.063431248068809509 0.026250895112752914
vn -0.66874486207962036 0.37256097793579102 -0.64341169595718384
vn -0.51073801517486572 -0.4580933153629303 -0.7275281548500061
vn -0.68163841962814331 -0.72747629880905151 -0.078404657542705536
vn -0.9696270227432251 0.24042905867099762 0.044914558529853821
vn 0.93417215347290039 -0.18337561190128326 0.30609771609306335
vn 0.974814772605896 -0.22143837809562683 0.026481214910745621
vn 0.57283264398574829 -0.8175777792930603 0.058560341596603394
vn 0.48316982388496399 -0.81672149896621704 0.31545671820640564
vn -0.26685932278633118 -0.92061984539031982 0.28503546118736267
vn -0.25564175844192505 -0.96516257524490356 0.055754121392965317
vn 0.19082985818386078 0.9597439169883728 0.2060961127281189
vn 0.22083990275859833 0.97530609369277954 -0.0027779843658208847
vn 0.83951270580291748 0.54332989454269409 0.0033168727532029152
vn 0.80035257339477539 0.5709766149520874 0.18281535804271698
vn -0.94070327281951904 0.24497297406196594 0.23466052114963531
vn -0.97445237636566162 0.22136908769607544 0.037924770265817642
vn -0.52655839920043945 0.85012137889862061 0.0054646809585392475
vn -0.50179487466812134 0.8301396369934082 0.24304342269897461
vn -0.87172514200210571 -0.48504632711410522 0.069464527070522308
vn -0.75458747148513794 -0.55749750137329102 0.34611305594444275
vn 0.97583234310150146 -0.21830612421035767 0.0096789924427866936
vn 0.4018464982509613 -0.91544157266616821 0.022048929706215858
vn -0.32593411207199097 -0.94520390033721924 0.018881604075431824
vn 0.2744486927986145 0.96157354116439819 -0.0073632495477795601
vn 0.83126330375671387 0.55584424734115601 0.0062051783315837383
vn -0.97581899166107178 0.2184542715549469 0.0074192625470459461
vn -0.48365488648414612 0.87487298250198364 -0.025985594838857651
vn -0.82806515693664551 -0.56027525663375854 0.019993597641587257
vn 0.55313563346862793 -0.68168377876281738 0.47890311479568481
vn 0.84132659435272217 -0.13793274760246277 0.5226319432258606
vn 0.2326512485742569 -0.87427425384521484 0.42604917287826538
vn 0.40554895997047424 -0.862071692943573 0.30391189455986023
vn 0.73472440242767334 0.61571961641311646 0.28472685813903809
vn 0.069734379649162292 0.88642078638076782 0.45759734511375427
vn 0.81679552793502808 0.44343921542167664 0.36906197667121887
vn 0.77873682975769043 0.61977523565292358 0.097198620438575745
vn -0.78690701723098755 0.51280558109283447 0.34323140978813171
vn -0.87573927640914917 0.40080422163009644 0.26914075016975403
vn -0.36246141791343689 0.86836481094360352 0.33847349882125854
vn -0.43793684244155884 0.85218167304992676 0.28635242581367493
vn -0.56548416614532471 -0.73492962121963501 0.37430757284164429
vn -0.42605549097061157 -0.80685919523239136 0.40921258926391602
vn -0.87810111045837402 0.027470080181956291 0.47768592834472656
vn -0.66952753067016602 -0.59548485279083252 0.44399404525756836
f 1//1 2//2 3//3
f 1//1 4//4 5//5
f 1//1 5//5 6//6
f 1//1 6//6 2//2
f 3//3 4//4 1//1
f 4//4 3//3 7//7
f 8//8 3//3 16//16
f 3//3 8//8 7//7
f 3//3 2//2 16//16
f 4//4 7//7 12//12
f 4//4 12//12 5//5
f 5//5 18//18 6//6
f 12//12 18//18 5//5
f 2//2 6//6 20//20
f 6//6 18//18 20//20
f 18//18 19//19 20//20
f 12//12 17//17 18//18
f 18//18 21//21 23//23
f 23//23 19//19 18//18
f 18//18 17//17 21//21
f 19//19 37//37 20//20
f 37//37 2//2 20//20
f 22//22 37//37 19//19
f 22//22 19//19 23//23
f 2//2 37//37 16//16
f 34//34 16//16 37//37
f 39//39 37//37 22//22
f 34//34 37//37 39//39
f 22//22 23//23 24//24
f 39//39 22//22 24//24
f 38//38 35//35 39//39
f 34//34 39//39 35//35
f 39//39 32//32 38//38
f 39//39 24//24 32//32
f 34//34 35//35 36//36
f 16//16 34//34 36//36
f 29//29 35//35 38//38
f 35//35 53//53 36//36
f 53//53 35//35 54//54
f 29//29 54//54 35//35
f 29//29 38//38 30//30
f 30//30 38//38 32//32
f 28//28 29//29 30//30
f 48//48 29//29 28//28
f 48//48 54//54 29//29
f 53//53 54//54 55//55
f 44//44 54//54 48//48
f 55//55 54//54 44//44
f 44//44 48//48 49//49
f 48//48 28//28 49//49
f 49//49 28//28 31//31
f 28//28 30//30 31//31
f 30//30 32//32 31//31
f 31//31 32//32 33//33
f 49//49 31//31 61//61
f 31//31 62//62 61//61
f 33//33 62//62 31//31
f 24//24 27//27 32//32
f 33//33 32//32 27//27
f 27//27 62//62 33//33
f 62//62 58//58 61//61
f 51//51 62//62 27//27
f 51//51 59//59 62//62
f 59//59 58//58 62//62
f 49//49 61//61 58//58
f 57//57 58//58 59//59
f 57//57 63//63 58//58
f 58//58 60//60 49//49
f 60//60 58//58 63//63
f 51//51 57//57 59//59
f 42//42 57//57 52//52
f 52//52 57//57 14//14
f 57//57 42//42 63//63
f 51//51 14//14 57//57
f 42//42 60//60 63//63
f 60//60 41//41 47//47
f 60//60 47//47 49//49
f 41//41 60//60 42//42
f 44//44 49//49 47//47
f 44//44 47//47 45//45
f 45//45 47//47 41//41
f 40//40 41//41 42//42
f 46//46 43//43 41//41
f 43//43 45//45 41//41
f 40//40 46//46 41//41
f 40//40 42//42 52//52
f 40//40 56//56 46//46
f 40//40 52//52 56//56
f 10//10 55//55 46//46
f 56//56 10//10 46//46
f 43//43 46//46 55//55
f 43//43 44//44 45//45
f 44//44 43//43 55//55
f 10//10 53//53 55//55
f 10//10 11//11 9//9
f 11//11 10//10 56//56
f 10//10 9//9 53//53
f 13//13 56//56 52//52
f 11//11 56//56 13//13
f 9//9 11//11 13//13
f 7//7 8//8 9//9
f 7//7 9//9 13//13
f 8//8 36//36 9//9
f 9//9 36//36 53//53
f 12//12 7//7 13//13
f 14//14 15//15 13//13
f 13//13 15//15 12//12
f 52//52 14//14 13//13
f 17//17 12//12 15//15
f 15//15 21//21 17//17
f 21//21 15//15 50//50
f 50//50 15//15 51//51
f 15//15 14//14 51//51
f 21//21 50//50 23//23
f 50//50 51//51 26//26
f 50//50 26//26 23//23
f 51//51 27//27 26//26
f 25//25 26//26 27//27
f 25//25 23//23 26//26
f 24//24 23//23 25//25
f 24//24 25//25 27//27
f 8//8 16//16 36//36
f 64//64 65//65 66//66
f 66//66 67//67 64//64
f 72//72 65//65 64//64
f 64//64 73//73 72//72
f 64//64 88//88 89//89
f 64//64 67//67 88//88
f 73//73 64//64 94//94
f 64//64 89//89 94//94
f 66//66 65//65 80//80
f 80//80 65//65 72//72
f 80//80 81//81 66//66
f 72//72 84//84 80//80
f 69//69 66//66 81//81
f 81//81 82//82 69//69
f 66//66 69//69 68//68
f 68//68 69//69 78//78
f 69//69 82//82 87//87
f 87//87 78//78 69//69
f 78//78 79//79 68//68
f 78//78 75//75 74//74
f 74//74 79//79 78//78
f 78//78 87//87 85//85
f 85//85 75//75 78//78
f 79//79 102//102 103//103
f 68//68 79//79 100//100
f 79//79 74//74 102//102
f 79//79 103//103 100//100
f 74//74 97//97 102//102
f 74//74 96//96 97//97
f 74//74 77//77 96//96
f 77//77 99//99 96//96
f 76//76 77//77 74//74
f 70//70 77//77 76//76
f 77//77 98//98 99//99
f 77//77 70//70 98//98
f 70//70 93//93 98//98
f 70//70 92//92 93//93
f 70//70 71//71 72//72
f 72//72 73//73 70//70
f 76//76 71//71 70//70
f 70//70 73//73 92//92
f 73//73 95//95 92//92
f 73//73 94//94 95//95
f 72//72 71//71 83//83
f 83//83 71//71 76//76
f 83//83 84//84 72//72
f 76//76 86//86 83//83
f 85//85 86//86 76//76
f 76//76 75//75 85//85
f 74//74 75//75 76//76
f 68//68 100//100 101//101
f 68//68 67//67 66//66
f 67//67 68//68 90//90
f 68//68 101//101 90//90
f 67//67 90//90 91//91
f 67//67 91//91 88//88
